<?xml version="1.0" encoding="utf-8"?>
<!-- Generator: Adobe Illustrator 27.1.1, SVG Export Plug-In . SVG Version: 6.00 Build 0)  -->
<svg version="1.1" id="Layer_1" xmlns="http://www.w3.org/2000/svg" xmlns:xlink="http://www.w3.org/1999/xlink" x="0px" y="0px"
	 viewBox="0 0 90.9 86.5" style="enable-background:new 0 0 90.9 86.5;" xml:space="preserve">
<style type="text/css">
	.st0{fill:#4D2A0B;}
</style>
<g id="Layer_2_00000012451644848086363180000010508927339966807735_">
	<g id="Layer_1-2">
		<path class="st0" d="M3.7,11c26.9,11.2,45.6,35,62.3,58.2c-8.9-4.1-17.6-8.6-26.6-12.4c-6.5-2.7-12.1,6.8-5.5,9.5
			c8.2,3.5,16.2,7.4,24.2,11.2c4,1.9,8,3.8,12,5.5c4.4,1.9,9.3,4.8,14.2,2.8c8.5-3.4,6.2-16.3,6.2-23.4c0.1-8.6,0.1-17.2,0.1-25.7
			c0-7.1-11-7.1-11,0l-0.1,21.8v10c0,0.3,0,0.6,0,0.9l0,0C59.9,41.9,38.8,13.8,6.6,0.4C0.1-2.3-2.7,8.4,3.7,11z"/>
	</g>
</g>
</svg>
