<svg xmlns="http://www.w3.org/2000/svg" viewBox="0 0 90.86 86.49"><defs><style>.cls-1{fill:#4d2a0b;}</style></defs><title>connect-end</title><g id="Layer_2" data-name="Layer 2"><g id="Layer_1-2" data-name="Layer 1"><path class="cls-1" d="M84.3.44C52.12,13.79,31,41.87,11.33,69.34l0,0q0-.47,0-.9l0-10-.06-21.75c0-7.07-11-7.09-11,0q0,12.87.08,25.73c0,7.13-2.28,20,6.24,23.41,4.89,2,9.8-.85,14.23-2.78q6.07-2.65,12-5.54c8-3.86,16-7.73,24.25-11.22,6.5-2.75.9-12.23-5.55-9.5-9,3.82-17.71,8.27-26.56,12.42,16.71-23.11,35.39-47,62.3-58.16C93.67,8.37,90.84-2.28,84.3.44Z"/></g></g></svg>